<?xml version="1.0" encoding="UTF-8" standalone="no"?>
<!DOCTYPE svg PUBLIC "-//W3C//DTD SVG 1.1//EN" "http://www.w3.org/Graphics/SVG/1.1/DTD/svg11.dtd">
<svg version="1.1" 
    xmlns="http://www.w3.org/2000/svg" 
    xmlns:xlink="http://www.w3.org/1999/xlink" preserveAspectRatio="xMidYMid meet" viewBox="4.91786565675244 4.642902377409968 102.2332155477032 50" width="98.23" height="46">
    <defs>
        <path d="M103.19 29.01L102.22 30.16L101.23 31.29L100.23 32.38L99.21 33.45L98.18 34.48L97.14 35.49L96.08 36.46L95.01 37.41L93.93 38.32L92.83 39.2L91.72 40.06L90.6 40.88L89.46 41.67L88.31 42.43L87.14 43.16L85.96 43.87L84.77 44.54L83.57 45.18L82.35 45.79L81.11 46.37L79.87 46.92L78.61 47.44L77.33 47.93L76.04 48.39L74.74 48.82L73.43 49.22L72.1 49.58L70.76 49.92L69.4 50.23L68.03 50.51L66.65 50.76L65.25 50.97L63.84 51.16L62.42 51.32L60.98 51.44L59.53 51.54L58.06 51.6L56.58 51.64L55.09 51.64L53.6 51.62L52.12 51.57L50.66 51.49L49.21 51.38L47.77 51.24L46.34 51.07L44.93 50.88L43.53 50.66L42.15 50.41L40.78 50.13L39.42 49.82L38.08 49.49L36.75 49.12L35.43 48.73L34.13 48.31L32.84 47.86L31.56 47.39L30.3 46.88L29.05 46.35L27.81 45.79L26.59 45.2L25.38 44.58L24.18 43.94L23 43.26L21.83 42.56L20.68 41.83L19.54 41.07L18.41 40.29L17.29 39.47L16.19 38.63L15.1 37.76L14.03 36.86L12.97 35.93L11.92 34.97L10.89 33.99L9.87 32.98L8.86 31.94L7.86 30.87L6.88 29.77L5.92 28.64L55.09 5.64L104.15 27.82L103.19 29.01ZM51.79 13.61L50.54 13.88L49.33 14.25L48.17 14.72L47.05 15.27L45.99 15.91L44.99 16.63L44.05 17.43L43.18 18.31L42.38 19.24L41.65 20.25L41.01 21.31L40.46 22.42L39.99 23.59L39.62 24.8L39.35 26.04L39.19 27.33L39.13 28.64L39.19 29.96L39.35 31.24L39.62 32.49L39.99 33.7L40.46 34.87L41.01 35.98L41.65 37.04L42.38 38.04L43.18 38.98L44.05 39.86L44.99 40.65L45.99 41.38L47.05 42.02L48.17 42.57L49.33 43.04L50.54 43.41L51.79 43.68L53.07 43.84L54.39 43.9L55.7 43.84L56.99 43.68L58.24 43.41L59.44 43.04L60.61 42.57L61.72 42.02L62.78 41.38L63.79 40.65L64.73 39.86L65.6 38.98L66.4 38.04L67.12 37.04L67.76 35.98L68.32 34.87L68.78 33.7L69.15 32.49L69.42 31.24L69.58 29.96L69.64 28.64L69.58 27.33L69.42 26.04L69.15 24.8L68.78 23.59L68.32 22.42L67.76 21.31L67.12 20.25L66.4 19.24L65.6 18.31L64.73 17.43L63.79 16.63L62.78 15.91L61.72 15.27L60.61 14.72L59.44 14.25L58.24 13.88L56.99 13.61L55.7 13.45L54.39 13.39L53.07 13.45L51.79 13.61Z" id="b3dxgUJSLW"></path>
        <path d="M66.11 28.82C66.11 35.35 60.8 40.66 54.27 40.66C47.74 40.66 42.43 35.35 42.43 28.82C42.43 22.29 47.74 16.98 54.27 16.98C60.8 16.98 66.11 22.29 66.11 28.82Z" id="e4epofLPWL"></path>
    </defs>
    <g>
        <g>
            <use xlink:href="#b3dxgUJSLW" opacity="1" fill="#75b3d9"  fill-opacity="1"></use>
        </g>
        <g>
            <use xlink:href="#e4epofLPWL" opacity="1" stroke-width="4" stroke="white" fill="#6f8dc4" fill-opacity="1"></use>
        </g>
    </g>
</svg>